<?xml version="1.0" standalone="no"?>
<!DOCTYPE svg PUBLIC "-//W3C//DTD SVG 20010904//EN"
 "http://www.w3.org/TR/2001/REC-SVG-20010904/DTD/svg10.dtd">
<svg version="1.0" xmlns="http://www.w3.org/2000/svg"
 width="2000.000000pt" height="2000.000000pt" viewBox="0 0 2000.000000 2000.000000"
 preserveAspectRatio="xMidYMid meet">
<metadata>
Created by potrace 1.14, written by Peter Selinger 2001-2017
</metadata>
<g transform="translate(0.000000,2000.000000) scale(0.100000,-0.100000)"
fill="#000000" stroke="none">
<path d="M3480 9995 l0 -6235 6240 0 6240 0 0 1038 0 1037 -345 0 c-303 1
-345 -1 -346 -15 -1 -8 -2 -319 -3 -690 l-1 -675 -5539 -3 c-3300 -1 -5542 2
-5545 7 -3 5 -6 2499 -6 5543 l0 5533 5545 0 5545 0 1 -685 c1 -377 2 -687 3
-690 0 -4 155 -6 344 -5 l342 0 3 1038 2 1037 -6240 0 -6240 0 0 -6235z"/>
<path d="M11629 13846 c-2 -2 -39 -7 -82 -11 -43 -3 -88 -8 -100 -10 -118 -20
-167 -29 -257 -51 -288 -69 -567 -201 -810 -383 -108 -81 -122 -93 -256 -226
-169 -169 -274 -302 -388 -497 -55 -94 -166 -317 -166 -334 0 -5 -7 -22 -16
-39 -30 -57 -130 -376 -149 -474 -2 -10 -12 -61 -23 -112 -11 -52 -23 -112
-26 -134 -6 -39 -11 -68 -21 -130 -3 -16 -7 -57 -10 -90 -4 -33 -8 -73 -10
-90 -27 -205 -27 -911 0 -1068 2 -12 7 -44 10 -71 3 -27 12 -92 21 -145 8 -53
17 -106 19 -118 13 -89 103 -405 135 -478 5 -11 27 -63 50 -115 127 -295 315
-540 562 -733 272 -212 539 -319 968 -386 139 -22 202 -26 415 -26 213 0 312
6 515 29 25 3 72 8 105 11 62 7 301 41 345 50 51 10 126 25 150 29 153 29 390
106 515 167 132 66 125 39 65 256 -29 103 -56 191 -60 196 -3 4 -35 -6 -71
-22 -57 -25 -198 -76 -239 -86 -8 -2 -69 -18 -135 -35 -66 -18 -131 -34 -145
-37 -13 -2 -60 -12 -105 -23 -76 -17 -218 -42 -315 -55 -25 -3 -56 -8 -70 -10
-25 -4 -129 -13 -216 -20 -151 -12 -526 -5 -584 11 -8 2 -35 6 -60 9 -298 37
-597 181 -807 387 -84 83 -113 118 -183 222 -191 284 -310 695 -347 1201 -14
194 -7 695 12 850 2 17 7 57 11 90 9 81 19 146 29 205 3 14 7 40 10 57 24 149
102 414 172 582 137 334 358 626 628 831 112 84 164 117 286 177 171 86 323
137 484 163 33 5 71 12 84 15 123 24 526 24 646 0 11 -3 36 -7 55 -9 113 -16
228 -45 373 -92 111 -37 119 -44 116 -99 -1 -11 2 -83 5 -160 4 -77 8 -192 11
-255 3 -63 7 -182 11 -265 3 -82 7 -179 9 -215 1 -36 3 -68 4 -71 0 -3 18 -5
39 -3 20 1 93 5 162 9 159 8 189 11 197 19 4 3 7 268 7 588 l1 582 -45 42
c-114 105 -339 225 -555 296 -33 11 -67 21 -75 23 -8 2 -42 10 -75 18 -54 13
-122 28 -150 32 -5 0 -30 4 -55 8 -25 4 -63 10 -85 13 -43 7 -530 15 -536 10z"/>
<path d="M7645 13830 c-2 -3 -4 -1302 -4 -2886 0 -2117 -3 -2903 -11 -2969
-46 -354 -234 -762 -524 -1135 -95 -122 -120 -151 -256 -293 -47 -49 -85 -92
-85 -97 0 -4 16 -25 35 -47 19 -22 77 -90 129 -151 l94 -111 24 19 c24 18 132
116 272 245 335 307 549 584 694 895 71 152 134 353 153 485 3 28 8 58 10 69
2 10 6 44 10 75 8 63 12 5860 4 5888 -5 17 -22 18 -273 18 -148 0 -270 -2
-272 -5z"/>
</g>
</svg>
