<svg id="svg" version="1.1" xmlns="http://www.w3.org/2000/svg" xmlns:xlink="http://www.w3.org/1999/xlink" width="400" height="450" viewBox="0, 0, 400,450"><g id="svgg"><path id="path0" d="M194.600 21.013 C 193.280 21.529,189.320 23.027,185.800 24.341 C 172.504 29.305,163.972 33.446,159.052 37.323 L 157.504 38.543 157.791 34.918 C 158.366 27.644,156.857 27.653,149.017 34.974 C 141.587 41.913,140.330 42.597,136.249 41.921 C 127.394 40.453,116.290 47.718,112.931 57.176 C 112.067 59.608,110.567 59.922,103.351 59.178 C 92.311 58.040,91.566 58.527,66.662 83.187 C 53.073 96.642,52.963 96.780,51.006 102.800 C 48.695 109.911,46.821 112.139,28.200 129.911 C 13.939 143.522,8.715 154.139,4.810 177.452 C 4.124 181.547,0.736 203.137,0.141 207.200 C -0.029 208.363,0.377 209.447,2.537 213.600 C 9.793 227.553,14.589 240.817,16.774 252.973 C 17.802 258.700,16.891 260.617,13.560 259.728 L 12.000 259.311 12.014 264.756 C 12.038 273.987,12.669 276.003,21.994 296.600 C 22.193 297.040,23.558 300.100,25.027 303.400 C 26.496 306.700,28.042 310.168,28.462 311.107 C 33.068 321.395,42.400 345.456,42.400 347.043 C 42.400 347.073,43.075 347.214,43.900 347.355 C 47.107 347.906,48.946 350.566,50.197 356.460 C 53.726 373.091,60.549 382.615,71.800 386.617 C 73.315 387.155,75.742 387.400,81.800 387.625 C 92.065 388.007,94.062 388.628,99.800 393.226 C 104.307 396.837,110.928 399.110,118.000 399.473 C 121.725 399.664,122.904 399.879,124.200 400.603 C 125.080 401.095,129.760 403.523,134.600 405.999 C 139.440 408.474,143.580 410.631,143.800 410.792 C 144.020 410.952,145.460 411.766,147.000 412.599 C 148.540 413.433,151.295 415.097,153.123 416.297 C 156.748 418.679,158.517 418.911,159.740 417.164 C 160.534 416.031,160.926 417.655,160.578 420.632 C 160.413 422.051,160.471 422.800,160.749 422.800 C 160.982 422.800,163.114 422.537,165.486 422.215 C 186.865 419.317,205.825 419.510,218.421 422.753 C 222.613 423.833,223.016 423.870,224.945 423.357 C 230.807 421.796,237.067 423.179,245.200 427.833 C 250.642 430.947,255.037 430.570,254.071 427.073 C 253.455 424.840,255.865 423.705,265.352 421.764 C 271.487 420.509,272.474 420.884,276.014 425.816 C 276.755 426.848,278.726 428.210,279.900 428.502 C 280.783 428.721,280.800 428.657,280.800 425.143 C 280.800 418.867,281.731 418.000,288.474 418.000 L 293.170 418.000 292.932 415.447 C 292.522 411.064,292.840 410.309,296.893 406.032 C 305.405 397.048,307.829 394.653,310.342 392.745 L 313.000 390.727 316.200 394.166 C 319.949 398.196,320.158 398.271,319.916 395.500 C 319.660 392.565,318.275 389.790,315.723 387.099 C 312.854 384.073,312.972 383.688,317.205 382.255 C 321.918 380.659,324.883 380.622,327.164 382.130 C 329.219 383.489,329.578 383.305,328.446 381.474 C 326.477 378.289,328.492 376.739,335.067 376.380 C 341.445 376.032,343.114 374.650,344.032 368.962 L 344.515 365.967 349.585 359.883 C 360.325 346.998,366.290 337.818,373.814 322.600 C 378.091 313.949,384.641 298.508,384.214 298.081 C 383.325 297.192,373.735 306.759,369.869 312.392 C 366.704 317.004,365.657 317.752,363.716 316.789 C 362.004 315.940,361.967 315.975,360.772 319.600 L 359.651 323.000 359.887 320.238 C 360.164 317.000,360.501 316.943,355.400 320.998 C 351.848 323.822,346.045 328.276,339.800 332.973 C 338.040 334.297,336.330 335.601,336.000 335.871 C 334.109 337.420,316.924 350.018,311.800 353.613 C 280.322 375.694,278.730 376.416,274.767 370.408 L 274.134 369.448 271.193 371.924 C 268.353 374.315,267.491 374.719,266.565 374.094 C 265.910 373.651,265.627 372.101,265.978 370.877 L 266.290 369.789 262.845 369.715 C 258.776 369.626,257.853 370.061,257.153 372.398 C 256.565 374.363,256.208 374.399,255.147 372.600 C 253.698 370.144,253.031 370.712,252.569 374.792 C 252.322 376.974,252.243 377.139,251.836 376.322 C 250.969 374.582,249.239 375.224,247.908 377.781 L 247.293 378.961 245.880 376.781 C 242.974 372.298,239.382 369.037,241.064 372.408 C 242.399 375.084,242.145 379.313,240.800 376.800 C 240.052 375.402,239.689 375.923,239.399 378.808 C 239.174 381.055,238.954 381.704,238.299 382.054 C 237.849 382.295,236.349 383.545,234.966 384.832 C 232.222 387.385,232.081 387.440,227.400 387.794 C 222.624 388.156,213.970 389.532,209.765 390.599 L 206.050 391.541 201.325 390.364 C 189.809 387.493,173.830 384.925,160.600 383.819 C 145.219 382.533,136.666 379.951,125.084 373.097 L 122.367 371.489 123.805 370.622 C 125.849 369.388,126.794 367.771,126.797 365.500 C 126.800 363.319,126.474 363.124,125.546 364.755 C 124.845 365.987,122.738 366.876,118.399 367.770 L 116.086 368.247 112.104 364.423 C 108.573 361.033,98.902 351.907,95.972 349.200 C 94.485 347.826,86.126 340.051,82.214 336.403 C 57.931 313.759,46.650 300.629,42.443 290.119 C 42.021 289.064,40.869 286.220,39.883 283.800 C 38.898 281.380,37.509 277.960,36.797 276.200 C 34.670 270.939,33.200 268.565,33.200 270.391 C 33.200 271.298,31.205 272.131,30.165 271.657 C 29.149 271.194,27.211 267.677,27.204 266.280 C 27.190 263.699,29.425 262.225,31.277 263.594 C 32.969 264.845,33.000 265.540,30.610 248.867 C 28.049 231.011,27.958 232.657,31.969 224.307 C 33.914 220.256,33.644 222.036,37.006 191.200 C 39.442 168.856,39.859 165.991,41.657 159.243 C 47.706 136.538,59.819 118.551,84.410 95.760 C 86.285 94.022,89.697 90.890,91.992 88.800 C 94.286 86.710,97.162 84.068,98.382 82.930 C 101.003 80.483,105.570 77.479,115.400 71.733 C 119.360 69.418,125.120 66.031,128.200 64.205 C 134.686 60.361,142.812 55.958,147.400 53.803 C 164.756 45.650,179.552 42.645,201.000 42.914 C 211.950 43.052,213.679 41.641,213.937 32.362 L 214.077 27.324 211.486 27.362 C 209.048 27.398,206.359 26.211,204.800 24.410 C 204.289 23.820,201.295 21.730,200.400 21.338 C 198.785 20.630,197.169 19.997,197.081 20.037 C 197.037 20.058,195.920 20.497,194.600 21.013 M256.600 33.582 C 252.511 33.832,251.099 34.536,249.784 36.978 C 249.285 37.904,248.808 38.335,248.437 38.193 C 243.433 36.272,234.196 37.295,231.309 40.090 C 222.602 48.517,236.630 61.374,256.600 63.268 C 262.063 63.787,261.983 63.755,270.348 68.783 C 281.149 75.275,291.037 81.795,303.436 90.600 C 305.604 92.140,307.773 93.670,308.255 94.000 C 308.737 94.330,312.243 96.850,316.047 99.600 C 319.851 102.350,323.360 104.870,323.845 105.200 C 324.330 105.530,327.127 107.507,330.060 109.593 C 336.784 114.376,337.568 114.485,343.755 111.493 C 345.909 110.452,347.719 109.600,347.778 109.600 C 347.837 109.600,347.899 111.482,347.917 113.783 C 347.955 118.729,349.011 123.181,351.848 130.348 C 354.736 137.647,356.555 140.194,360.800 142.879 C 368.327 147.642,370.809 155.755,367.796 165.749 L 367.209 167.698 369.202 171.642 C 373.137 179.429,377.936 186.001,382.316 189.600 C 385.892 192.539,386.000 192.702,386.001 195.175 C 386.004 199.488,388.382 201.317,390.878 198.925 C 392.244 197.617,392.232 197.481,391.344 204.335 C 390.453 211.208,390.403 223.527,391.256 226.000 L 391.876 227.800 392.168 225.000 C 394.132 206.144,395.485 198.626,398.639 189.067 C 399.425 186.684,399.979 184.646,399.871 184.538 C 399.345 184.012,397.135 185.816,395.770 187.885 C 394.197 190.269,393.326 191.165,392.559 191.187 C 392.257 191.196,392.042 188.274,391.875 181.900 C 391.622 172.214,391.318 168.865,389.021 150.482 C 388.260 144.387,387.584 138.930,387.518 138.354 C 387.453 137.779,378.040 122.305,366.600 103.968 L 345.800 70.627 339.991 64.813 C 325.875 50.688,308.336 40.878,287.400 35.400 C 279.288 33.277,270.276 32.745,256.600 33.582 M255.463 146.008 C 218.528 149.321,204.568 172.420,205.305 229.001 C 205.941 277.907,219.216 299.187,251.800 303.539 C 279.690 307.264,304.321 297.302,313.772 278.476 C 317.522 271.005,320.000 259.481,320.000 249.512 L 320.000 245.600 314.051 245.600 L 308.103 245.600 307.832 250.100 C 306.148 278.061,292.801 291.770,266.000 293.069 C 241.419 294.260,225.539 282.616,220.251 259.526 C 217.853 249.056,216.614 215.074,218.197 203.200 C 221.466 178.684,227.370 168.062,241.546 161.195 C 253.916 155.203,275.122 155.545,287.400 161.934 C 300.889 168.954,306.693 179.785,307.854 200.101 L 308.122 204.800 314.118 204.800 L 320.113 204.800 319.878 198.500 C 318.861 171.301,307.526 155.277,284.582 148.602 C 276.523 146.257,264.561 145.192,255.463 146.008 M153.197 207.700 C 153.194 270.273,153.199 270.073,151.368 275.531 C 143.301 299.576,100.714 299.029,93.022 274.781 C 92.060 271.750,91.408 266.961,91.241 261.700 L 91.200 260.400 85.548 260.400 L 79.896 260.400 80.105 266.900 C 80.861 290.365,96.603 304.158,122.600 304.136 C 143.883 304.118,158.878 294.355,164.280 277.000 L 165.400 273.400 165.508 210.700 L 165.617 148.000 159.408 148.000 L 153.200 148.000 153.197 207.700 M33.479 281.724 C 34.119 282.452,35.584 285.243,36.735 287.925 C 37.887 290.608,39.219 293.464,39.696 294.273 L 40.563 295.743 38.840 294.774 C 36.509 293.464,35.604 292.057,35.186 289.094 C 34.972 287.579,34.229 285.383,33.293 283.500 C 31.622 280.135,31.671 279.664,33.479 281.724 M29.229 285.156 C 29.846 287.221,30.216 288.751,30.050 288.556 C 29.885 288.360,28.951 287.210,27.975 286.000 C 26.999 284.790,26.065 283.740,25.900 283.667 C 25.017 283.274,26.515 281.084,27.529 281.285 C 27.879 281.355,28.549 282.880,29.229 285.156 " stroke="none" fill="#949494" fill-rule="evenodd"></path><path id="path1" d="M165.795 206.400 C 165.795 238.630,165.842 251.815,165.900 235.700 C 165.958 219.585,165.958 193.215,165.900 177.100 C 165.842 160.985,165.795 174.170,165.795 206.400 M91.301 261.800 C 91.305 262.680,91.387 262.993,91.483 262.495 C 91.579 261.998,91.575 261.278,91.475 260.895 C 91.375 260.513,91.296 260.920,91.301 261.800 " stroke="none" fill="#989494" fill-rule="evenodd"></path><path id="path2" d="M165.795 206.400 C 165.795 238.630,165.842 251.815,165.900 235.700 C 165.958 219.585,165.958 193.215,165.900 177.100 C 165.842 160.985,165.795 174.170,165.795 206.400 M91.301 261.800 C 91.305 262.680,91.387 262.993,91.483 262.495 C 91.579 261.998,91.575 261.278,91.475 260.895 C 91.375 260.513,91.296 260.920,91.301 261.800 " stroke="none" fill="#989494" fill-rule="evenodd"></path><path id="path3" d="M165.795 206.400 C 165.795 238.630,165.842 251.815,165.900 235.700 C 165.958 219.585,165.958 193.215,165.900 177.100 C 165.842 160.985,165.795 174.170,165.795 206.400 M91.301 261.800 C 91.305 262.680,91.387 262.993,91.483 262.495 C 91.579 261.998,91.575 261.278,91.475 260.895 C 91.375 260.513,91.296 260.920,91.301 261.800 " stroke="none" fill="#989494" fill-rule="evenodd"></path><path id="path4" d="M165.795 206.400 C 165.795 238.630,165.842 251.815,165.900 235.700 C 165.958 219.585,165.958 193.215,165.900 177.100 C 165.842 160.985,165.795 174.170,165.795 206.400 M91.301 261.800 C 91.305 262.680,91.387 262.993,91.483 262.495 C 91.579 261.998,91.575 261.278,91.475 260.895 C 91.375 260.513,91.296 260.920,91.301 261.800 " stroke="none" fill="#989494" fill-rule="evenodd"></path></g></svg>