<svg id="visual" viewBox="0 0 900 600" width="900" height="600" xmlns="http://www.w3.org/2000/svg" xmlns:xlink="http://www.w3.org/1999/xlink" version="1.1"><g stroke-width="1" stroke-linejoin="bevel"><path d="M463 285L432 231L391 279Z" fill="#1c1b42" stroke="#1c1b42"></path><path d="M463 285L472 172L432 231Z" fill="#18172a" stroke="#18172a"></path><path d="M432 231L337 190L391 279Z" fill="#211e61" stroke="#211e61"></path><path d="M391 279L480 375L463 285Z" fill="#1e1c4e" stroke="#1e1c4e"></path><path d="M608 185L489 129L472 172Z" fill="#1b1a3c" stroke="#1b1a3c"></path><path d="M472 172L337 190L432 231Z" fill="#1d1c48" stroke="#1d1c48"></path><path d="M337 190L314 338L391 279Z" fill="#201e5b" stroke="#201e5b"></path><path d="M391 279L434 438L480 375Z" fill="#1e1c4e" stroke="#1e1c4e"></path><path d="M597 295L472 172L463 285Z" fill="#1b1a3c" stroke="#1b1a3c"></path><path d="M472 172L410 83L337 190Z" fill="#1a1936" stroke="#1a1936"></path><path d="M314 338L434 438L391 279Z" fill="#201e5b" stroke="#201e5b"></path><path d="M631 408L597 295L480 375Z" fill="#1f1d55" stroke="#1f1d55"></path><path d="M480 375L597 295L463 285Z" fill="#211e61" stroke="#211e61"></path><path d="M314 338L322 420L434 438Z" fill="#1b1a3c" stroke="#1b1a3c"></path><path d="M489 129L410 83L472 172Z" fill="#1c1b42" stroke="#1c1b42"></path><path d="M209 185L239 267L337 190Z" fill="#1b1a3c" stroke="#1b1a3c"></path><path d="M337 190L239 267L314 338Z" fill="#211e61" stroke="#211e61"></path><path d="M314 338L205 377L322 420Z" fill="#201e5b" stroke="#201e5b"></path><path d="M597 295L608 185L472 172Z" fill="#1e1c4e" stroke="#1e1c4e"></path><path d="M465 0L395 0L410 83Z" fill="#211e61" stroke="#211e61"></path><path d="M375 508L518 471L434 438Z" fill="#1a1936" stroke="#1a1936"></path><path d="M434 438L518 471L480 375Z" fill="#1b1a3c" stroke="#1b1a3c"></path><path d="M235 88L209 185L337 190Z" fill="#1a1936" stroke="#1a1936"></path><path d="M193 471L320 483L322 420Z" fill="#1a1936" stroke="#1a1936"></path><path d="M322 420L375 508L434 438Z" fill="#191830" stroke="#191830"></path><path d="M631 408L668 286L597 295Z" fill="#1b1a3c" stroke="#1b1a3c"></path><path d="M597 295L668 286L608 185Z" fill="#191830" stroke="#191830"></path><path d="M320 483L375 508L322 420Z" fill="#201e5b" stroke="#201e5b"></path><path d="M518 471L631 408L480 375Z" fill="#201e5b" stroke="#201e5b"></path><path d="M131 281L205 377L239 267Z" fill="#1b1a3c" stroke="#1b1a3c"></path><path d="M239 267L205 377L314 338Z" fill="#1e1c4e" stroke="#1e1c4e"></path><path d="M410 83L273 75L337 190Z" fill="#1f1d55" stroke="#1f1d55"></path><path d="M717 209L605 90L608 185Z" fill="#191830" stroke="#191830"></path><path d="M608 185L605 90L489 129Z" fill="#1d1c48" stroke="#1d1c48"></path><path d="M410 83L296 0L273 75Z" fill="#1e1c4e" stroke="#1e1c4e"></path><path d="M273 75L235 88L337 190Z" fill="#201e5b" stroke="#201e5b"></path><path d="M465 0L410 83L489 129Z" fill="#191830" stroke="#191830"></path><path d="M273 75L234 0L235 88Z" fill="#1d1c48" stroke="#1d1c48"></path><path d="M605 90L465 0L489 129Z" fill="#1b1a3c" stroke="#1b1a3c"></path><path d="M832 301L717 209L668 286Z" fill="#18172a" stroke="#18172a"></path><path d="M668 286L717 209L608 185Z" fill="#18172a" stroke="#18172a"></path><path d="M601 513L679 427L631 408Z" fill="#1f1d55" stroke="#1f1d55"></path><path d="M631 408L679 427L668 286Z" fill="#1b1a3c" stroke="#1b1a3c"></path><path d="M209 185L131 281L239 267Z" fill="#191830" stroke="#191830"></path><path d="M82 220L131 281L209 185Z" fill="#1a1936" stroke="#1a1936"></path><path d="M518 471L601 513L631 408Z" fill="#1c1b42" stroke="#1c1b42"></path><path d="M515 600L601 513L518 471Z" fill="#171624" stroke="#171624"></path><path d="M395 0L296 0L410 83Z" fill="#191830" stroke="#191830"></path><path d="M273 600L389 600L375 508Z" fill="#18172a" stroke="#18172a"></path><path d="M205 377L193 471L322 420Z" fill="#1a1936" stroke="#1a1936"></path><path d="M125 409L193 471L205 377Z" fill="#211e61" stroke="#211e61"></path><path d="M296 0L234 0L273 75Z" fill="#171624" stroke="#171624"></path><path d="M235 88L115 127L209 185Z" fill="#1b1a3c" stroke="#1b1a3c"></path><path d="M273 600L375 508L320 483Z" fill="#171624" stroke="#171624"></path><path d="M375 508L515 600L518 471Z" fill="#201e5b" stroke="#201e5b"></path><path d="M666 0L625 0L605 90Z" fill="#1e1c4e" stroke="#1e1c4e"></path><path d="M605 90L625 0L465 0Z" fill="#1d1c48" stroke="#1d1c48"></path><path d="M131 281L125 409L205 377Z" fill="#1e1c4e" stroke="#1e1c4e"></path><path d="M389 600L515 600L375 508Z" fill="#18172a" stroke="#18172a"></path><path d="M234 0L115 127L235 88Z" fill="#171624" stroke="#171624"></path><path d="M131 281L0 290L125 409Z" fill="#201e5b" stroke="#201e5b"></path><path d="M115 127L82 220L209 185Z" fill="#201e5b" stroke="#201e5b"></path><path d="M566 600L666 530L601 513Z" fill="#18172a" stroke="#18172a"></path><path d="M601 513L666 530L679 427Z" fill="#211e61" stroke="#211e61"></path><path d="M679 427L783 413L668 286Z" fill="#18172a" stroke="#18172a"></path><path d="M515 600L566 600L601 513Z" fill="#211e61" stroke="#211e61"></path><path d="M731 61L666 0L605 90Z" fill="#18172a" stroke="#18172a"></path><path d="M170 600L273 600L193 471Z" fill="#1b1a3c" stroke="#1b1a3c"></path><path d="M193 471L273 600L320 483Z" fill="#201e5b" stroke="#201e5b"></path><path d="M717 209L731 61L605 90Z" fill="#1b1a3c" stroke="#1b1a3c"></path><path d="M761 500L783 413L679 427Z" fill="#201e5b" stroke="#201e5b"></path><path d="M717 209L774 96L731 61Z" fill="#201e5b" stroke="#201e5b"></path><path d="M0 435L120 498L125 409Z" fill="#1c1b42" stroke="#1c1b42"></path><path d="M125 409L120 498L193 471Z" fill="#191830" stroke="#191830"></path><path d="M832 301L806 188L717 209Z" fill="#201e5b" stroke="#201e5b"></path><path d="M806 188L774 96L717 209Z" fill="#1d1c48" stroke="#1d1c48"></path><path d="M731 61L766 0L666 0Z" fill="#1f1d55" stroke="#1f1d55"></path><path d="M666 530L761 500L679 427Z" fill="#1a1936" stroke="#1a1936"></path><path d="M688 600L761 500L666 530Z" fill="#1c1b42" stroke="#1c1b42"></path><path d="M783 413L832 301L668 286Z" fill="#1e1c4e" stroke="#1e1c4e"></path><path d="M900 263L832 301L900 423Z" fill="#211e61" stroke="#211e61"></path><path d="M120 498L170 600L193 471Z" fill="#1e1c4e" stroke="#1e1c4e"></path><path d="M566 600L688 600L666 530Z" fill="#201e5b" stroke="#201e5b"></path><path d="M82 220L0 290L131 281Z" fill="#1c1b42" stroke="#1c1b42"></path><path d="M120 498L66 600L170 600Z" fill="#1d1c48" stroke="#1d1c48"></path><path d="M0 202L0 290L82 220Z" fill="#1b1a3c" stroke="#1b1a3c"></path><path d="M900 0L766 0L774 96Z" fill="#211e61" stroke="#211e61"></path><path d="M774 96L766 0L731 61Z" fill="#1e1c4e" stroke="#1e1c4e"></path><path d="M900 100L774 96L806 188Z" fill="#211e61" stroke="#211e61"></path><path d="M0 113L82 220L115 127Z" fill="#18172a" stroke="#18172a"></path><path d="M0 113L0 202L82 220Z" fill="#1b1a3c" stroke="#1b1a3c"></path><path d="M234 0L61 0L115 127Z" fill="#1f1d55" stroke="#1f1d55"></path><path d="M61 0L0 113L115 127Z" fill="#201e5b" stroke="#201e5b"></path><path d="M0 290L0 435L125 409Z" fill="#1a1936" stroke="#1a1936"></path><path d="M900 423L832 301L783 413Z" fill="#1e1c4e" stroke="#1e1c4e"></path><path d="M832 301L900 263L806 188Z" fill="#1b1a3c" stroke="#1b1a3c"></path><path d="M900 263L900 213L806 188Z" fill="#1f1d55" stroke="#1f1d55"></path><path d="M0 435L0 477L120 498Z" fill="#201e5b" stroke="#201e5b"></path><path d="M0 477L66 600L120 498Z" fill="#211e61" stroke="#211e61"></path><path d="M688 600L791 600L761 500Z" fill="#1c1b42" stroke="#1c1b42"></path><path d="M900 500L900 423L783 413Z" fill="#191830" stroke="#191830"></path><path d="M900 500L783 413L761 500Z" fill="#1c1b42" stroke="#1c1b42"></path><path d="M900 213L900 100L806 188Z" fill="#171624" stroke="#171624"></path><path d="M61 0L0 0L0 113Z" fill="#211e61" stroke="#211e61"></path><path d="M791 600L900 500L761 500Z" fill="#1a1936" stroke="#1a1936"></path><path d="M0 477L0 600L66 600Z" fill="#1c1b42" stroke="#1c1b42"></path><path d="M900 100L900 0L774 96Z" fill="#211e61" stroke="#211e61"></path><path d="M791 600L900 600L900 500Z" fill="#1c1b42" stroke="#1c1b42"></path></g></svg>