<svg id="visual" viewBox="0 0 900 600" width="900" height="600" xmlns="http://www.w3.org/2000/svg" xmlns:xlink="http://www.w3.org/1999/xlink" version="1.1"><g stroke-width="1" stroke-linejoin="bevel"><path d="M480.9 303L559.7 300L482.9 216Z" fill="#333333" stroke="#333333"></path><path d="M559.7 300L551.7 207L482.9 216Z" fill="#2b2b2b" stroke="#2b2b2b"></path><path d="M482.9 216L409.1 237L480.9 303Z" fill="#303030" stroke="#303030"></path><path d="M559.7 300L630.5 282L551.7 207Z" fill="#2c2c2c" stroke="#2c2c2c"></path><path d="M551.7 207L475.9 152L482.9 216Z" fill="#333333" stroke="#333333"></path><path d="M482.9 216L405.1 162L409.1 237Z" fill="#323232" stroke="#323232"></path><path d="M461.9 396L553.7 391L480.9 303Z" fill="#2d2d2d" stroke="#2d2d2d"></path><path d="M480.9 303L553.7 391L559.7 300Z" fill="#2f2f2f" stroke="#2f2f2f"></path><path d="M559.7 300L638.5 370L630.5 282Z" fill="#2e2e2e" stroke="#2e2e2e"></path><path d="M409.1 237L396.1 324L480.9 303Z" fill="#2e2e2e" stroke="#2e2e2e"></path><path d="M630.5 282L659.5 222L551.7 207Z" fill="#323232" stroke="#323232"></path><path d="M551.7 207L598.7 136L475.9 152Z" fill="#313131" stroke="#313131"></path><path d="M396.1 324L461.9 396L480.9 303Z" fill="#2a2a2a" stroke="#2a2a2a"></path><path d="M659.5 222L598.7 136L551.7 207Z" fill="#2f2f2f" stroke="#2f2f2f"></path><path d="M475.9 152L405.1 162L482.9 216Z" fill="#2a2a2a" stroke="#2a2a2a"></path><path d="M409.1 237L336.3 306L396.1 324Z" fill="#313131" stroke="#313131"></path><path d="M553.7 391L638.5 370L559.7 300Z" fill="#2f2f2f" stroke="#2f2f2f"></path><path d="M630.5 282L714.4 287L659.5 222Z" fill="#2f2f2f" stroke="#2f2f2f"></path><path d="M396.1 324L389.1 386L461.9 396Z" fill="#333333" stroke="#333333"></path><path d="M316.3 353L389.1 386L396.1 324Z" fill="#2c2c2c" stroke="#2c2c2c"></path><path d="M307.3 227L336.3 306L409.1 237Z" fill="#303030" stroke="#303030"></path><path d="M659.5 222L655.5 125L598.7 136Z" fill="#2d2d2d" stroke="#2d2d2d"></path><path d="M598.7 136L565.7 73L475.9 152Z" fill="#333333" stroke="#333333"></path><path d="M475.9 152L431.1 61L405.1 162Z" fill="#323232" stroke="#323232"></path><path d="M655.5 125L565.7 73L598.7 136Z" fill="#2d2d2d" stroke="#2d2d2d"></path><path d="M638.5 370L714.4 287L630.5 282Z" fill="#2b2b2b" stroke="#2b2b2b"></path><path d="M659.5 222L738.4 154L655.5 125Z" fill="#313131" stroke="#313131"></path><path d="M494.9 498L505.9 467L388.1 476Z" fill="#2b2b2b" stroke="#2b2b2b"></path><path d="M461.9 396L505.9 467L553.7 391Z" fill="#2e2e2e" stroke="#2e2e2e"></path><path d="M553.7 391L575.7 464L638.5 370Z" fill="#2a2a2a" stroke="#2a2a2a"></path><path d="M505.9 467L575.7 464L553.7 391Z" fill="#313131" stroke="#313131"></path><path d="M638.5 370L710.4 370L714.4 287Z" fill="#2b2b2b" stroke="#2b2b2b"></path><path d="M565.7 73L485.9 50L475.9 152Z" fill="#2c2c2c" stroke="#2c2c2c"></path><path d="M306.3 166L307.3 227L405.1 162Z" fill="#2a2a2a" stroke="#2a2a2a"></path><path d="M405.1 162L307.3 227L409.1 237Z" fill="#2a2a2a" stroke="#2a2a2a"></path><path d="M485.9 50L431.1 61L475.9 152Z" fill="#333333" stroke="#333333"></path><path d="M664.5 433L710.4 370L638.5 370Z" fill="#2c2c2c" stroke="#2c2c2c"></path><path d="M228.5 327L316.3 353L336.3 306Z" fill="#2f2f2f" stroke="#2f2f2f"></path><path d="M336.3 306L316.3 353L396.1 324Z" fill="#2d2d2d" stroke="#2d2d2d"></path><path d="M388.1 476L505.9 467L461.9 396Z" fill="#2d2d2d" stroke="#2d2d2d"></path><path d="M575.7 464L664.5 433L638.5 370Z" fill="#333333" stroke="#333333"></path><path d="M349.3 70L306.3 166L405.1 162Z" fill="#323232" stroke="#323232"></path><path d="M388.1 476L461.9 396L389.1 386Z" fill="#2d2d2d" stroke="#2d2d2d"></path><path d="M505.9 467L577.7 528L575.7 464Z" fill="#2e2e2e" stroke="#2e2e2e"></path><path d="M575.7 464L651.5 528L664.5 433Z" fill="#2a2a2a" stroke="#2a2a2a"></path><path d="M711.4 102L677.5 77L655.5 125Z" fill="#333333" stroke="#333333"></path><path d="M655.5 125L677.5 77L565.7 73Z" fill="#303030" stroke="#303030"></path><path d="M593.7 0L471.9 0L485.9 50Z" fill="#2c2c2c" stroke="#2c2c2c"></path><path d="M763.4 245L738.4 154L659.5 222Z" fill="#333333" stroke="#333333"></path><path d="M763.4 245L659.5 222L714.4 287Z" fill="#323232" stroke="#323232"></path><path d="M796.2 301L763.4 245L714.4 287Z" fill="#323232" stroke="#323232"></path><path d="M738.4 154L711.4 102L655.5 125Z" fill="#2b2b2b" stroke="#2b2b2b"></path><path d="M316.3 353L355.3 450L389.1 386Z" fill="#2b2b2b" stroke="#2b2b2b"></path><path d="M355.3 450L388.1 476L389.1 386Z" fill="#303030" stroke="#303030"></path><path d="M403.1 0L349.3 70L431.1 61Z" fill="#2f2f2f" stroke="#2f2f2f"></path><path d="M431.1 61L349.3 70L405.1 162Z" fill="#2c2c2c" stroke="#2c2c2c"></path><path d="M593.7 0L485.9 50L565.7 73Z" fill="#303030" stroke="#303030"></path><path d="M485.9 50L471.9 0L431.1 61Z" fill="#323232" stroke="#323232"></path><path d="M251.5 142L252.5 233L306.3 166Z" fill="#2c2c2c" stroke="#2c2c2c"></path><path d="M306.3 166L252.5 233L307.3 227Z" fill="#2c2c2c" stroke="#2c2c2c"></path><path d="M307.3 227L252.5 233L336.3 306Z" fill="#323232" stroke="#323232"></path><path d="M316.3 353L258.5 427L355.3 450Z" fill="#2e2e2e" stroke="#2e2e2e"></path><path d="M666.5 0L593.7 0L677.5 77Z" fill="#313131" stroke="#313131"></path><path d="M677.5 77L593.7 0L565.7 73Z" fill="#2a2a2a" stroke="#2a2a2a"></path><path d="M543.7 600L577.7 528L494.9 498Z" fill="#313131" stroke="#313131"></path><path d="M494.9 498L577.7 528L505.9 467Z" fill="#2c2c2c" stroke="#2c2c2c"></path><path d="M710.4 370L796.2 301L714.4 287Z" fill="#303030" stroke="#303030"></path><path d="M763.4 245L811.2 229L738.4 154Z" fill="#333333" stroke="#333333"></path><path d="M805.2 399L796.2 301L710.4 370Z" fill="#2f2f2f" stroke="#2f2f2f"></path><path d="M751.4 436L710.4 370L664.5 433Z" fill="#2c2c2c" stroke="#2c2c2c"></path><path d="M471.9 0L403.1 0L431.1 61Z" fill="#2e2e2e" stroke="#2e2e2e"></path><path d="M741.4 530L751.4 436L664.5 433Z" fill="#2c2c2c" stroke="#2c2c2c"></path><path d="M349.3 70L251.5 142L306.3 166Z" fill="#2c2c2c" stroke="#2c2c2c"></path><path d="M235.5 54L251.5 142L349.3 70Z" fill="#333333" stroke="#333333"></path><path d="M796.2 301L811.2 229L763.4 245Z" fill="#2b2b2b" stroke="#2b2b2b"></path><path d="M738.4 154L811.2 48L711.4 102Z" fill="#2b2b2b" stroke="#2b2b2b"></path><path d="M188.6 298L228.5 327L252.5 233Z" fill="#333333" stroke="#333333"></path><path d="M252.5 233L228.5 327L336.3 306Z" fill="#313131" stroke="#313131"></path><path d="M577.7 528L651.5 528L575.7 464Z" fill="#2e2e2e" stroke="#2e2e2e"></path><path d="M752.4 0L666.5 0L677.5 77Z" fill="#2a2a2a" stroke="#2a2a2a"></path><path d="M752.4 0L677.5 77L711.4 102Z" fill="#2e2e2e" stroke="#2e2e2e"></path><path d="M325.3 505L423.1 550L388.1 476Z" fill="#2a2a2a" stroke="#2a2a2a"></path><path d="M388.1 476L423.1 550L494.9 498Z" fill="#333333" stroke="#333333"></path><path d="M577.7 528L655.5 600L651.5 528Z" fill="#303030" stroke="#303030"></path><path d="M325.3 505L388.1 476L355.3 450Z" fill="#303030" stroke="#303030"></path><path d="M243.5 401L258.5 427L316.3 353Z" fill="#323232" stroke="#323232"></path><path d="M228.5 327L243.5 401L316.3 353Z" fill="#333333" stroke="#333333"></path><path d="M403.1 0L349.3 0L349.3 70Z" fill="#2e2e2e" stroke="#2e2e2e"></path><path d="M258.5 427L325.3 505L355.3 450Z" fill="#333333" stroke="#333333"></path><path d="M797.2 434L805.2 399L751.4 436Z" fill="#2c2c2c" stroke="#2c2c2c"></path><path d="M751.4 436L805.2 399L710.4 370Z" fill="#2a2a2a" stroke="#2a2a2a"></path><path d="M900 308L900 221L811.2 229Z" fill="#2f2f2f" stroke="#2f2f2f"></path><path d="M251.5 142L191.6 248L252.5 233Z" fill="#2d2d2d" stroke="#2d2d2d"></path><path d="M228.5 327L160.6 402L243.5 401Z" fill="#2a2a2a" stroke="#2a2a2a"></path><path d="M741.4 530L797.2 434L751.4 436Z" fill="#2e2e2e" stroke="#2e2e2e"></path><path d="M191.6 248L188.6 298L252.5 233Z" fill="#2c2c2c" stroke="#2c2c2c"></path><path d="M489.9 600L543.7 600L494.9 498Z" fill="#2b2b2b" stroke="#2b2b2b"></path><path d="M651.5 528L741.4 530L664.5 433Z" fill="#313131" stroke="#313131"></path><path d="M384.1 600L489.9 600L423.1 550Z" fill="#2a2a2a" stroke="#2a2a2a"></path><path d="M423.1 550L489.9 600L494.9 498Z" fill="#2b2b2b" stroke="#2b2b2b"></path><path d="M900 162L842.2 129L811.2 229Z" fill="#2f2f2f" stroke="#2f2f2f"></path><path d="M811.2 229L842.2 129L738.4 154Z" fill="#2f2f2f" stroke="#2f2f2f"></path><path d="M731.4 600L741.4 530L651.5 528Z" fill="#2b2b2b" stroke="#2b2b2b"></path><path d="M811.2 48L752.4 0L711.4 102Z" fill="#313131" stroke="#313131"></path><path d="M349.3 0L235.5 54L349.3 70Z" fill="#2e2e2e" stroke="#2e2e2e"></path><path d="M251.5 142L141.6 177L191.6 248Z" fill="#333333" stroke="#333333"></path><path d="M258.5 427L267.5 511L325.3 505Z" fill="#2d2d2d" stroke="#2d2d2d"></path><path d="M325.3 505L384.1 600L423.1 550Z" fill="#2b2b2b" stroke="#2b2b2b"></path><path d="M153.6 470L267.5 511L258.5 427Z" fill="#2a2a2a" stroke="#2a2a2a"></path><path d="M153.6 470L258.5 427L243.5 401Z" fill="#323232" stroke="#323232"></path><path d="M842.2 129L811.2 48L738.4 154Z" fill="#2f2f2f" stroke="#2f2f2f"></path><path d="M334.3 600L384.1 600L325.3 505Z" fill="#2c2c2c" stroke="#2c2c2c"></path><path d="M543.7 600L655.5 600L577.7 528Z" fill="#313131" stroke="#313131"></path><path d="M900 308L796.2 301L900 373Z" fill="#2e2e2e" stroke="#2e2e2e"></path><path d="M900 308L811.2 229L796.2 301Z" fill="#333333" stroke="#333333"></path><path d="M900 56L824.2 0L811.2 48Z" fill="#2c2c2c" stroke="#2c2c2c"></path><path d="M900 373L796.2 301L805.2 399Z" fill="#313131" stroke="#313131"></path><path d="M900 373L805.2 399L900 460Z" fill="#303030" stroke="#303030"></path><path d="M90.8 305L160.6 402L188.6 298Z" fill="#2c2c2c" stroke="#2c2c2c"></path><path d="M188.6 298L160.6 402L228.5 327Z" fill="#2e2e2e" stroke="#2e2e2e"></path><path d="M150.6 47L141.6 177L251.5 142Z" fill="#333333" stroke="#333333"></path><path d="M191.6 248L90.8 305L188.6 298Z" fill="#313131" stroke="#313131"></path><path d="M244.5 600L334.3 600L267.5 511Z" fill="#2a2a2a" stroke="#2a2a2a"></path><path d="M267.5 511L334.3 600L325.3 505Z" fill="#2c2c2c" stroke="#2c2c2c"></path><path d="M349.3 0L226.5 0L235.5 54Z" fill="#303030" stroke="#303030"></path><path d="M235.5 54L150.6 47L251.5 142Z" fill="#2a2a2a" stroke="#2a2a2a"></path><path d="M900 221L900 162L811.2 229Z" fill="#2c2c2c" stroke="#2c2c2c"></path><path d="M900 460L805.2 399L797.2 434Z" fill="#2e2e2e" stroke="#2e2e2e"></path><path d="M655.5 600L731.4 600L651.5 528Z" fill="#2c2c2c" stroke="#2c2c2c"></path><path d="M741.4 530L840.2 503L797.2 434Z" fill="#313131" stroke="#313131"></path><path d="M900 56L811.2 48L842.2 129Z" fill="#303030" stroke="#303030"></path><path d="M811.2 48L824.2 0L752.4 0Z" fill="#2b2b2b" stroke="#2b2b2b"></path><path d="M845.2 600L840.2 503L741.4 530Z" fill="#2d2d2d" stroke="#2d2d2d"></path><path d="M85.8 121L106.8 204L141.6 177Z" fill="#2f2f2f" stroke="#2f2f2f"></path><path d="M141.6 177L106.8 204L191.6 248Z" fill="#2b2b2b" stroke="#2b2b2b"></path><path d="M160.6 402L153.6 470L243.5 401Z" fill="#2b2b2b" stroke="#2b2b2b"></path><path d="M106.8 402L153.6 470L160.6 402Z" fill="#2f2f2f" stroke="#2f2f2f"></path><path d="M172.6 0L150.6 47L235.5 54Z" fill="#313131" stroke="#313131"></path><path d="M106.8 204L90.8 305L191.6 248Z" fill="#323232" stroke="#323232"></path><path d="M900 498L900 460L840.2 503Z" fill="#2c2c2c" stroke="#2c2c2c"></path><path d="M840.2 503L900 460L797.2 434Z" fill="#2e2e2e" stroke="#2e2e2e"></path><path d="M900 162L900 56L842.2 129Z" fill="#2c2c2c" stroke="#2c2c2c"></path><path d="M226.5 0L172.6 0L235.5 54Z" fill="#2c2c2c" stroke="#2c2c2c"></path><path d="M90.8 305L106.8 402L160.6 402Z" fill="#2b2b2b" stroke="#2b2b2b"></path><path d="M153.6 503L244.5 600L267.5 511Z" fill="#2c2c2c" stroke="#2c2c2c"></path><path d="M62.8 445L153.6 503L153.6 470Z" fill="#313131" stroke="#313131"></path><path d="M153.6 470L153.6 503L267.5 511Z" fill="#303030" stroke="#303030"></path><path d="M150.6 47L109.8 88L141.6 177Z" fill="#323232" stroke="#323232"></path><path d="M106.8 204L0 278L90.8 305Z" fill="#313131" stroke="#313131"></path><path d="M98.8 0L109.8 88L150.6 47Z" fill="#2a2a2a" stroke="#2a2a2a"></path><path d="M900 600L900 498L840.2 503Z" fill="#2c2c2c" stroke="#2c2c2c"></path><path d="M0 66L85.8 121L109.8 88Z" fill="#303030" stroke="#303030"></path><path d="M109.8 88L85.8 121L141.6 177Z" fill="#2a2a2a" stroke="#2a2a2a"></path><path d="M900 56L900 0L824.2 0Z" fill="#2b2b2b" stroke="#2b2b2b"></path><path d="M731.4 600L845.2 600L741.4 530Z" fill="#2c2c2c" stroke="#2c2c2c"></path><path d="M0 365L62.8 445L106.8 402Z" fill="#2d2d2d" stroke="#2d2d2d"></path><path d="M106.8 402L62.8 445L153.6 470Z" fill="#2e2e2e" stroke="#2e2e2e"></path><path d="M153.6 503L147.6 600L244.5 600Z" fill="#2d2d2d" stroke="#2d2d2d"></path><path d="M0 365L106.8 402L90.8 305Z" fill="#2a2a2a" stroke="#2a2a2a"></path><path d="M172.6 0L98.8 0L150.6 47Z" fill="#313131" stroke="#313131"></path><path d="M101.8 548L147.6 600L153.6 503Z" fill="#313131" stroke="#313131"></path><path d="M62.8 445L101.8 548L153.6 503Z" fill="#323232" stroke="#323232"></path><path d="M845.2 600L900 600L840.2 503Z" fill="#333333" stroke="#333333"></path><path d="M0 202L0 278L106.8 204Z" fill="#2c2c2c" stroke="#2c2c2c"></path><path d="M0 202L106.8 204L0 176Z" fill="#2f2f2f" stroke="#2f2f2f"></path><path d="M0 176L106.8 204L85.8 121Z" fill="#303030" stroke="#303030"></path><path d="M0 66L0 176L85.8 121Z" fill="#2c2c2c" stroke="#2c2c2c"></path><path d="M0 278L0 365L90.8 305Z" fill="#2c2c2c" stroke="#2c2c2c"></path><path d="M62.8 445L0 510L101.8 548Z" fill="#2b2b2b" stroke="#2b2b2b"></path><path d="M0 365L0 439L62.8 445Z" fill="#333333" stroke="#333333"></path><path d="M101.8 548L70.8 600L147.6 600Z" fill="#2a2a2a" stroke="#2a2a2a"></path><path d="M98.8 0L0 66L109.8 88Z" fill="#2f2f2f" stroke="#2f2f2f"></path><path d="M0 510L70.8 600L101.8 548Z" fill="#2d2d2d" stroke="#2d2d2d"></path><path d="M0 439L0 510L62.8 445Z" fill="#303030" stroke="#303030"></path><path d="M98.8 0L0 0L0 66Z" fill="#333333" stroke="#333333"></path><path d="M0 510L0 600L70.8 600Z" fill="#2c2c2c" stroke="#2c2c2c"></path></g></svg>